<svg width="240" height="140" viewBox="0 0 240 140" fill="none" xmlns="http://www.w3.org/2000/svg">
<rect width="240" height="140" fill="white"/>
<g clip-path="url(#clip0_3373_4891)">
<path d="M10 100.397V65.7207H28.7535C31.9041 65.7207 34.4883 66.5224 36.462 68.0793C38.4356 69.6361 39.4245 71.7592 39.4245 74.3553C39.4245 79.0258 36.4155 82.0928 34.1608 82.6124C37.546 82.7545 41.2121 85.6327 41.2121 90.6341C41.2121 96.2484 36.9353 100.399 30.3531 100.399H10V100.397ZM16.2991 79.9675H28.3795C31.2469 79.9675 33.081 78.3174 33.081 75.8167C33.081 73.316 30.8708 71.5238 27.3462 71.5238H16.2991V79.9696V79.9675ZM16.2991 94.594H28.8972C32.5147 94.594 34.8666 92.4709 34.8666 89.5927C34.8666 87.2808 32.5633 85.7706 28.9901 85.7706H16.2991V94.594Z" fill="black"/>
<path d="M57.2969 74.3516H63.4079V89.4977C63.4079 93.2731 65.8506 95.6295 69.7999 95.6295C73.7492 95.6295 76.0525 93.3643 76.0525 89.6377V74.3516H82.1614V90.1107C82.1614 93.4597 81.0816 96.1492 78.9178 98.2256C76.7561 100.302 73.7006 101.339 69.7999 101.339C65.8992 101.339 62.7972 100.302 60.5869 98.179C58.3788 96.0558 57.2969 93.3197 57.2969 89.9686V74.3516Z" fill="black"/>
<path d="M100.853 73.5978C106.307 73.5978 110.535 76.2873 112.839 79.8739L107.761 83.1763C106.305 80.9598 104 79.2609 100.946 79.2609C98.6896 79.2609 96.8111 80.016 95.3066 81.5728C93.8021 83.1296 93.0498 85.0173 93.0498 87.2805C93.0498 89.5436 93.8021 91.4313 95.3066 92.9881C96.8111 94.5449 98.6917 95.3 100.946 95.3C104.002 95.3 106.21 93.7432 107.573 91.62L113.073 94.4028C110.394 98.9312 105.553 100.961 100.851 100.961C92.9083 100.961 86.8438 95.0624 86.8438 87.2317C86.8438 79.4009 92.7667 73.5957 100.851 73.5957L100.853 73.5978Z" fill="black"/>
<path d="M122.9 100.396H116.789V63.8789H122.9V76.6177C125.203 74.59 128.164 73.5974 131.361 73.5974C137.237 73.5974 141.654 77.9857 141.654 82.8916V100.394H135.545V85.2502C135.545 81.5236 133.241 79.2583 129.529 79.2583C126.239 79.2583 122.902 81.7123 122.902 85.0614V100.394L122.9 100.396Z" fill="black"/>
<path d="M172.682 94.5469C171.6 96.4346 169.956 97.9914 167.653 99.1707C165.396 100.35 162.951 100.963 160.32 100.963C153.222 100.963 146.078 96.5745 146.078 87.2336C146.078 79.4495 152.189 73.5977 159.898 73.5977C167.606 73.5977 173.246 79.072 173.246 87.5157V89.9209H152.658C153.645 93.27 157.03 95.2998 160.601 95.2998C164.172 95.2998 166.478 93.6009 168.122 91.1957L172.682 94.5447V94.5469ZM152.658 84.6863H167.181C166.429 81.4793 163.562 79.2608 159.988 79.2608C156.415 79.2608 153.455 81.4793 152.656 84.6863H152.658Z" fill="black"/>
<path d="M203.689 94.5469C202.608 96.4346 200.964 97.9914 198.66 99.1707C196.404 100.35 193.959 100.963 191.328 100.963C184.23 100.963 177.086 96.5745 177.086 87.2336C177.086 79.4495 183.197 73.5977 190.905 73.5977C198.614 73.5977 204.254 79.072 204.254 87.5157V89.9209H183.666C184.653 93.27 188.038 95.2998 191.609 95.2998C195.18 95.2998 197.486 93.6009 199.129 91.1957L203.689 94.5447V94.5469ZM183.666 84.6863H198.189C197.437 81.4793 194.569 79.2608 190.996 79.2608C187.423 79.2608 184.463 81.4793 183.664 84.6863H183.666Z" fill="black"/>
<path d="M229.999 94.7343V100.395H206.168V99.9244L219.328 80.0145H208.142V74.3535H229.904V74.8265L216.79 94.7364H229.999V94.7343Z" fill="black"/>
<path d="M56.8824 102.148C53.5839 100.048 51.7561 96.9835 51.7561 92.803V77.186L51.7307 77.3451V32H45.7148V95.1191C45.7148 100.263 48.3477 104.32 53.5649 107.103L55.1624 108L57.9432 102.967L58.0298 102.81C57.6304 102.602 57.248 102.381 56.8845 102.15L56.8824 102.148Z" fill="black"/>
</g>
<defs>
<clipPath id="clip0_3373_4891">
<rect width="220" height="76" fill="white" transform="translate(10 32)"/>
</clipPath>
</defs>
</svg>
