<svg width="127" height="22" viewBox="0 0 127 22" fill="none" xmlns="http://www.w3.org/2000/svg">
<path d="M17.1877 20.528L13.4684 20.4947L12.0099 16.5832L5.24749 16.5228L3.71931 20.4076L2.5864e-06 20.3744L8.77658 6.03527e-06L17.1877 20.528ZM8.70767 7.71156L6.40181 13.4822L10.9101 13.5224L8.70767 7.71156ZM28.3569 10.2036C28.2069 10.1646 28.0476 10.1256 27.8789 10.0863C27.7289 10.0473 27.5601 10.0175 27.3725 9.99707C27.2037 9.95784 27.016 9.93738 26.8094 9.93554C26.2459 9.9305 25.747 10.039 25.313 10.2612C24.8977 10.4834 24.5476 10.7723 24.2627 11.1275C23.9965 11.4829 23.7862 11.886 23.6319 12.3366C23.4963 12.7874 23.4266 13.2482 23.4224 13.719L23.361 20.5831L20.0362 20.5534L20.1568 7.05112L23.1999 7.07831L23.3553 8.60519C23.6399 8.28752 23.9618 7.99858 24.3212 7.73808C24.6424 7.51495 25.02 7.31111 25.4538 7.1267C25.9063 6.94246 26.4143 6.85279 26.9778 6.85782C27.222 6.86 27.4286 6.87131 27.5974 6.89161C27.7663 6.9119 27.9164 6.93217 28.0478 6.95213C28.179 6.97209 28.301 6.99211 28.4136 7.0119L28.3569 10.2036ZM40.6204 11.2454C40.3406 11.0169 40.0138 10.8068 39.6398 10.6152C39.3219 10.4616 38.9287 10.3169 38.4601 10.1809C38.0107 10.0262 37.5136 9.94643 36.9688 9.94156C36.4242 9.9367 35.916 10.0452 35.4442 10.2669C34.9728 10.4699 34.5571 10.7487 34.1969 11.1033C33.8556 11.458 33.5795 11.8793 33.3684 12.3671C33.1763 12.8551 33.0777 13.3627 33.073 13.89C33.0683 14.4172 33.1577 14.9265 33.3412 15.4178C33.5247 15.9092 33.7838 16.3446 34.1185 16.7243C34.4534 17.0851 34.8547 17.3806 35.3223 17.6108C35.8087 17.8411 36.3336 17.9588 36.8971 17.9638C37.4795 17.969 38.006 17.9078 38.4768 17.7802C38.9478 17.6337 39.353 17.4773 39.6927 17.3108C40.089 17.1072 40.4386 16.8843 40.7412 16.6422L40.711 20.0319C40.4088 20.2175 40.0597 20.3839 39.6639 20.531C39.3246 20.6598 38.9009 20.769 38.3929 20.8587C37.9038 20.9485 37.3491 20.9906 36.7292 20.9851C35.7525 20.9763 34.843 20.7893 34.0009 20.4239C33.1779 20.0399 32.4591 19.525 31.8449 18.8792C31.2308 18.2334 30.7491 17.4852 30.3997 16.6346C30.0506 15.7652 29.8803 14.8407 29.8891 13.8615C29.8978 12.8823 30.0845 11.9705 30.4489 11.1263C30.8137 10.2633 31.3086 9.52374 31.934 8.90784C32.5596 8.27315 33.2874 7.78048 34.117 7.43011C34.9655 7.07991 35.8782 6.9091 36.8549 6.91783C37.3997 6.92269 37.897 6.97417 38.347 7.07241C38.8159 7.17081 39.2188 7.26848 39.5561 7.36571C39.9494 7.50101 40.3144 7.64552 40.6512 7.79924L40.6204 11.2454ZM57.3022 20.8864L54.1182 20.8579L53.9892 19.5291C53.7046 19.8467 53.3829 20.1169 53.0239 20.3397C52.7028 20.544 52.3067 20.7193 51.8357 20.8658C51.3646 21.0311 50.8003 21.1108 50.1428 21.1049C49.2788 21.0972 48.4445 20.9108 47.6399 20.5458C46.8541 20.181 46.1541 19.685 45.5398 19.0581C44.9443 18.4312 44.4624 17.6924 44.0943 16.8417C43.7452 15.9723 43.5751 15.029 43.5842 14.0121C43.5933 12.9952 43.7801 12.0647 44.1445 11.2204C44.528 10.3576 45.0231 9.61804 45.6296 9.00196C46.2552 8.36727 46.964 7.8839 47.756 7.55198C48.567 7.20144 49.4045 7.02996 50.2685 7.03768C50.926 7.04356 51.4982 7.13342 51.985 7.30727C52.4719 7.48112 52.8741 7.673 53.1915 7.88304C53.5465 8.11221 53.8447 8.37858 54.0861 8.68202L54.2389 7.35565L57.4228 7.3841L57.3022 20.8864ZM50.6639 10.0922C50.1004 10.0871 49.583 10.1861 49.1114 10.3891C48.64 10.5921 48.2335 10.8802 47.892 11.2539C47.5507 11.6086 47.284 12.03 47.0917 12.518C46.8997 12.9871 46.8012 13.4947 46.7963 14.0408C46.7914 14.587 46.8808 15.1056 47.0642 15.597C47.2479 16.0694 47.507 16.4955 47.8418 16.8752C48.1767 17.2359 48.578 17.5315 49.0455 17.7616C49.5134 17.973 50.0289 18.0812 50.5925 18.0862C51.1936 18.0916 51.7015 18.0114 52.1163 17.8456C52.5313 17.661 52.8805 17.4664 53.1641 17.2617C53.4857 17.0198 53.7606 16.7303 53.989 16.3933L54.0302 11.789C53.8075 11.4857 53.5376 11.2101 53.2204 10.9625C52.9405 10.7528 52.5947 10.5614 52.1829 10.3883C51.7714 10.1963 51.265 10.0976 50.6639 10.0922ZM75.0111 21.0446L71.8553 21.0164L71.7271 19.6028C71.4622 19.9206 71.1398 20.2003 70.7615 20.4417C70.4413 20.646 70.0352 20.8307 69.5449 20.9958C69.074 21.1799 68.5097 21.269 67.8517 21.2632C66.9881 21.2554 66.1627 21.0691 65.377 20.7043C64.5918 20.3395 63.9011 19.8436 63.3056 19.2168C62.7288 18.5902 62.2658 17.8515 61.9165 17.0009C61.5861 16.1317 61.4255 15.1885 61.4346 14.1716C61.4436 13.1547 61.6303 12.2242 61.9949 11.3799C62.3595 10.5169 62.8357 9.7772 63.4237 9.16096C64.0304 8.5261 64.7204 8.04256 65.4931 7.71046C66.2852 7.35976 67.1138 7.1882 67.9774 7.19591C68.6354 7.20179 69.1981 7.29157 69.6658 7.46525C70.1531 7.6391 70.5558 7.83099 70.8723 8.04103C71.228 8.28899 71.5256 8.56482 71.7666 8.86826L71.8398 0.676493L75.1928 0.706452L75.0111 21.0446ZM68.3728 10.2504C67.8093 10.2454 67.3012 10.3444 66.8485 10.5475C66.3959 10.7507 66.0086 11.0391 65.6855 11.4129C65.3639 11.7678 65.1061 12.1892 64.9139 12.6772C64.7406 13.1465 64.6516 13.6542 64.6467 14.2003C64.6418 14.7465 64.7217 15.265 64.8864 15.7562C65.07 16.2286 65.3202 16.6546 65.6352 17.0341C65.9518 17.3948 66.3338 17.6901 66.7827 17.9201C67.2316 18.1314 67.7379 18.2394 68.3014 18.2445C68.903 18.2498 69.4109 18.1696 69.8252 18.0038C70.2411 17.8192 70.5894 17.6246 70.873 17.4199C71.195 17.178 71.4695 16.8885 71.698 16.5516L71.7391 11.9472C71.5164 11.644 71.2469 11.3684 70.9293 11.1208C70.6494 10.911 70.3045 10.7197 69.8918 10.5465C69.4807 10.3545 68.9744 10.2558 68.3728 10.2504ZM86.2823 7.35947C87.3347 7.36888 88.2528 7.58429 89.0381 8.00559C89.8418 8.40827 90.5049 8.93215 91.0247 9.57708C91.5642 10.2222 91.9608 10.932 92.2174 11.7065C92.4924 12.4622 92.6267 13.1979 92.6203 13.9135C92.618 14.1772 92.6059 14.4219 92.5856 14.6477C92.5653 14.8735 92.5439 15.0616 92.5242 15.2122C92.4845 15.4001 92.4549 15.56 92.4354 15.6916L82.4891 15.6027C82.5604 15.9801 82.7079 16.3392 82.9303 16.6802C83.1527 17.0212 83.4317 17.3344 83.7673 17.6199C84.103 17.8866 84.4956 18.1066 84.9449 18.2802C85.4127 18.4351 85.9192 18.5149 86.4644 18.5197C87.1589 18.5259 87.7991 18.4657 88.3822 18.3391C88.9851 18.1938 89.5021 18.0384 89.9362 17.8728C90.4452 17.6701 90.9164 17.439 91.3513 17.1792L91.323 20.3429C90.8887 20.5462 90.408 20.7302 89.881 20.895C89.4288 21.0417 88.8824 21.1686 88.2432 21.2759C87.6223 21.3833 86.9456 21.4338 86.213 21.4272C85.1986 21.4182 84.2521 21.2307 83.3719 20.8651C82.5117 20.4807 81.7639 19.9655 81.1315 19.3196C80.499 18.6736 80.0069 17.9253 79.658 17.0747C79.3093 16.2053 79.1387 15.2808 79.1474 14.3017C79.1562 13.3225 79.3517 12.4107 79.7354 11.5667C80.1193 10.7038 80.6332 9.96447 81.2769 9.34873C81.9405 8.71438 82.6959 8.22196 83.5444 7.87176C84.4112 7.52172 85.3243 7.35091 86.2823 7.35947ZM86.1162 10.183C85.6654 10.1789 85.2321 10.2598 84.8178 10.4256C84.4218 10.5916 84.0634 10.8144 83.741 11.094C83.4187 11.3736 83.1537 11.7008 82.9433 12.0756C82.733 12.4315 82.5887 12.8069 82.5105 13.2017L89.5265 13.2644C89.4916 12.9063 89.3821 12.5474 89.1979 12.188C89.0322 11.8098 88.7999 11.4782 88.5024 11.193C88.2233 10.8892 87.8774 10.6507 87.4661 10.4775C87.0734 10.2857 86.6234 10.1875 86.1162 10.183ZM109.965 14.6053C109.956 15.5845 109.759 16.5056 109.377 17.3685C108.993 18.2125 108.47 18.9518 107.807 19.5862C107.162 20.2019 106.397 20.6941 105.512 21.0629C104.643 21.4129 103.704 21.5835 102.689 21.5744C101.675 21.5654 100.727 21.3779 99.8482 21.0123C98.9682 20.6277 98.2119 20.1219 97.5792 19.4948C96.9454 18.8489 96.4448 18.1004 96.0776 17.2496C95.7275 16.3802 95.5583 15.4558 95.567 14.4766C95.5758 13.4974 95.7614 12.5856 96.1269 11.7414C96.5094 10.8785 97.0232 10.1392 97.6683 9.52344C98.3306 8.88908 99.0958 8.39674 99.964 8.04672C100.849 7.67792 101.801 7.49813 102.815 7.5072C103.829 7.51626 104.766 7.71291 105.627 8.09732C106.506 8.46296 107.263 8.96889 107.896 9.61483C108.547 10.2421 109.058 10.9907 109.426 11.8602C109.793 12.711 109.974 13.6261 109.965 14.6053ZM106.753 14.5766C106.758 14.0304 106.658 13.521 106.457 13.0484C106.272 12.5571 106.004 12.1309 105.651 11.77C105.316 11.3903 104.896 11.0947 104.391 10.883C103.904 10.6527 103.37 10.5349 102.788 10.5297C102.186 10.5243 101.64 10.6324 101.151 10.854C100.678 11.057 100.263 11.3451 99.903 11.7186C99.542 12.0732 99.2663 12.4945 99.0745 12.9825C98.8816 13.4515 98.784 13.9592 98.7791 14.5053C98.7743 15.0515 98.8542 15.57 99.0189 16.0612C99.202 16.5336 99.4617 16.9597 99.7964 17.3394C100.131 17.7002 100.542 17.9958 101.028 18.2261C101.534 18.4379 102.096 18.5464 102.716 18.552C103.298 18.5572 103.834 18.4584 104.325 18.2556C104.834 18.0341 105.259 17.746 105.601 17.3912C105.961 17.0177 106.236 16.5965 106.429 16.1274C106.639 15.6396 106.748 15.1227 106.753 14.5766ZM126.805 21.5074L123.452 21.4775L123.524 13.4552C123.532 12.5513 123.284 11.8711 122.781 11.4146C122.278 10.9581 121.632 10.7263 120.843 10.7193C120.298 10.7144 119.818 10.7948 119.404 10.9606C118.99 11.1264 118.63 11.3115 118.328 11.516C117.988 11.739 117.686 12 117.419 12.2989L117.338 21.4228L113.985 21.3929L114.106 7.89058L117.233 7.91852L117.388 9.50189C117.691 9.16561 118.052 8.85808 118.467 8.57929C118.826 8.3565 119.25 8.15308 119.741 7.96918C120.25 7.76652 120.832 7.66819 121.49 7.67407C122.298 7.68128 123.039 7.82915 123.712 8.11767C124.386 8.3874 124.956 8.77853 125.421 9.29117C125.886 9.78503 126.247 10.3815 126.504 11.0806C126.761 11.7609 126.886 12.5153 126.878 13.3439L126.805 21.5074Z" fill="#D62828"/>
</svg>
